<svg width="17" height="16" viewBox="0 0 17 16" fill="none" xmlns="http://www.w3.org/2000/svg">
<path d="M16.1406 7.19282L2.85306 7.19282L8.21546 1.86028C8.5401 1.53732 8.52483 1.02416 8.18108 0.719135C8.01303 0.572006 7.80297 0.496646 7.58908 0.496646C7.35992 0.496646 7.13458 0.582771 6.9627 0.747843L0.232978 7.44401C0.2177 7.45837 0.206244 7.47631 0.190966 7.49425C0.17187 7.51578 0.152772 7.53732 0.137494 7.55885C0.122216 7.58038 0.110759 7.6055 0.0954826 7.63062C0.0840232 7.65215 0.0687453 7.67368 0.0611064 7.69521C0.049649 7.72392 0.04201 7.75263 0.0305526 7.78133C0.0229137 7.80286 0.0152747 7.82081 0.0114543 7.84234C-0.0114606 7.94641 -0.0114606 8.05047 0.0114543 8.15454C0.0152747 8.17607 0.0229136 8.19401 0.0305525 8.21554C0.0381896 8.24425 0.0458304 8.27296 0.0611064 8.30167C0.0725657 8.3232 0.0840231 8.34473 0.0954825 8.36626C0.10694 8.39138 0.122216 8.41291 0.137494 8.43803C0.152772 8.45956 0.17187 8.48109 0.190966 8.50263C0.206244 8.52057 0.2177 8.53492 0.232978 8.55286L6.96652 15.249C7.29117 15.572 7.83734 15.5864 8.18108 15.2813C8.52864 14.9727 8.54392 14.4632 8.21546 14.1366L2.84924 8.80406L16.1406 8.80406C16.6142 8.80765 17 8.44521 17 8.00024C17 7.55526 16.6142 7.19282 16.1406 7.19282Z" fill="#00BC9A"/>
</svg>
