<svg width="38" height="27" viewBox="0 0 38 27" fill="none" xmlns="http://www.w3.org/2000/svg">
<path d="M37.639 11.0467V26.0303H30.2866V11.7836C30.2866 9.32731 29.0612 7.7307 26.7329 7.7307C24.2821 7.7307 22.9342 9.45013 22.9342 12.2749V26.0303H15.5818V11.7836C15.5818 9.32731 14.3564 7.7307 12.0281 7.7307C9.57731 7.7307 8.22936 9.45013 8.22936 12.2749V26.0303H0.876953V1.71272H8.22936V3.92341C9.33222 2.20399 11.538 0.97583 14.724 0.97583C17.5424 0.97583 19.7481 2.20399 21.0961 4.16904C22.444 2.20399 24.6498 0.97583 28.2034 0.97583C33.9628 0.97583 37.639 5.02875 37.639 11.0467Z" fill="#64DDBA"/>
</svg>
