<svg width="27" height="27" viewBox="0 0 27 27" fill="none" xmlns="http://www.w3.org/2000/svg">
<path d="M14.3548 20.2579C16.3155 20.2579 18.031 19.521 19.0114 18.4157L24.8933 21.7317C22.565 25.0477 18.8888 26.7672 14.2323 26.7672C5.89957 26.7672 0.752884 21.1176 0.752884 13.8715C0.752884 6.62536 6.0221 0.97583 13.7421 0.97583C20.8495 0.97583 26.1187 6.50254 26.1187 13.8715C26.1187 14.854 25.9962 15.8365 25.8736 16.8191H8.59545C9.45323 19.3982 11.7815 20.2579 14.3548 20.2579ZM18.8888 11.2924C18.1536 8.4676 15.9479 7.48507 13.7421 7.48507C10.9237 7.48507 9.08562 8.83605 8.47292 11.2924H18.8888Z" fill="#64DDBA"/>
</svg>
