<svg width="22" height="26" viewBox="0 0 22 26" fill="none" xmlns="http://www.w3.org/2000/svg">
<path d="M21.3899 17.7831C21.3899 23.4327 16.4883 25.7662 11.219 25.7662C6.31744 25.7662 2.64123 23.9239 0.803131 19.9938L7.17522 16.4322C7.78792 18.2744 9.13587 19.2569 11.3416 19.2569C13.0572 19.2569 13.9149 18.7657 13.9149 17.7831C13.9149 15.0812 1.90598 16.555 1.90598 8.08069C1.90598 2.7996 6.43997 0.0976562 11.4641 0.0976562C15.3854 0.0976562 18.9391 1.81708 20.8997 5.37874L14.6502 8.69477C13.9149 7.46661 12.9346 6.6069 11.3416 6.6069C10.1162 6.6069 9.25839 7.09816 9.25839 7.95787C9.38093 10.537 21.3899 8.69477 21.3899 17.7831Z" fill="#64DDBA"/>
</svg>
