<svg width="28" height="27" viewBox="0 0 28 27" fill="none" xmlns="http://www.w3.org/2000/svg">
<path d="M27.1469 1.71272V26.1531H19.7945V23.8196C18.2015 25.6618 15.7507 26.7672 12.5646 26.7672C6.19252 26.7672 0.923294 21.1176 0.923294 13.8715C0.923294 6.62536 6.19252 0.97583 12.5646 0.97583C15.8732 0.97583 18.2015 2.08117 19.7945 3.92341V1.58991L27.1469 1.71272ZM19.7945 13.8715C19.7945 10.187 17.3437 7.97633 14.0351 7.97633C10.7265 7.97633 8.2757 10.3098 8.2757 13.8715C8.2757 17.556 10.7265 19.7667 14.0351 19.7667C17.3437 19.8895 19.7945 17.556 19.7945 13.8715Z" fill="#64DDBA"/>
</svg>
