<svg width="67" height="62" viewBox="0 0 67 62" fill="none" xmlns="http://www.w3.org/2000/svg">
<path d="M65.0057 20.41L43.5612 4.19833C42.5809 3.46144 41.2329 3.33862 40.1301 4.07552L34.7383 7.51436L26.4056 0.882304C25.4252 0.145409 23.9548 0.0225929 22.9744 0.759488L1.5299 14.6377C0.672118 15.1289 0.181957 16.1115 0.181957 17.094L0.0594177 52.4649C0.0594177 54.0616 1.40736 55.4125 3.00038 55.4125C4.5934 55.4125 5.94135 54.0616 5.94135 52.4649L6.06389 18.8134L24.4449 6.90028L29.4691 10.8304L13.6614 20.7785C12.8036 21.2697 12.3134 22.2523 12.3134 23.3576V58.1145C12.3134 59.7111 13.6614 61.0621 15.2544 61.0621C16.8474 61.0621 18.1954 59.7111 18.1954 58.1145V25.077L41.6005 10.2163L61.3295 25.1998C62.6774 26.1824 64.5155 25.9367 65.4959 24.5858C66.5987 23.3576 66.3536 21.3925 65.0057 20.41Z" fill="#35495D"/>
</svg>
