<svg width="67" height="62" viewBox="0 0 67 62" fill="none" xmlns="http://www.w3.org/2000/svg">
<path d="M65.0057 20.4991L43.5612 4.28744C42.5809 3.55055 41.2329 3.42773 40.1301 4.16463L34.7383 7.60347L26.4056 0.971415C25.4253 0.23452 23.9548 0.111704 22.9745 0.848599L1.52993 14.7268C0.672149 15.2181 0.181988 16.2006 0.181988 17.1831L0.0594482 52.5541C0.0594482 54.1507 1.40739 55.5016 3.00041 55.5016C4.59343 55.5016 5.94138 54.1507 5.94138 52.5541L6.06392 18.9025L24.4449 6.98939L29.4691 10.9195L13.6614 20.8676C12.8036 21.3588 12.3135 22.3414 12.3135 23.4467V58.2036C12.3135 59.8002 13.6614 61.1512 15.2544 61.1512C16.8475 61.1512 18.1954 59.8002 18.1954 58.2036V25.1661L41.6006 10.3054L61.3295 25.2889C62.6775 26.2715 64.5156 26.0258 65.4959 24.6749C66.5988 23.4467 66.3537 21.4817 65.0057 20.4991Z" fill="white"/>
</svg>
