<svg width="12" height="11" viewBox="0 0 12 11" fill="none" xmlns="http://www.w3.org/2000/svg">
<path d="M0.685122 5.12629C0.685122 3.56929 0.946122 2.35429 1.46812 1.48129C1.99912 0.599292 2.90812 0.158292 4.19512 0.158292C5.48212 0.158292 6.38662 0.599292 6.90862 1.48129C7.43962 2.35429 7.70512 3.56929 7.70512 5.12629C7.70512 6.70129 7.43962 7.93429 6.90862 8.82529C6.38662 9.70729 5.48212 10.1483 4.19512 10.1483C2.90812 10.1483 1.99912 9.70729 1.46812 8.82529C0.946122 7.93429 0.685122 6.70129 0.685122 5.12629ZM6.19312 5.12629C6.19312 4.39729 6.14362 3.78079 6.04462 3.27679C5.95462 2.77279 5.76562 2.36329 5.47762 2.04829C5.18962 1.72429 4.76212 1.56229 4.19512 1.56229C3.62812 1.56229 3.20062 1.72429 2.91262 2.04829C2.62462 2.36329 2.43112 2.77279 2.33212 3.27679C2.24212 3.78079 2.19712 4.39729 2.19712 5.12629C2.19712 5.88229 2.24212 6.51679 2.33212 7.02979C2.42212 7.54279 2.61112 7.95679 2.89912 8.27179C3.19612 8.58679 3.62812 8.74429 4.19512 8.74429C4.76212 8.74429 5.18962 8.58679 5.47762 8.27179C5.77462 7.95679 5.96812 7.54279 6.05812 7.02979C6.14812 6.51679 6.19312 5.88229 6.19312 5.12629ZM9.13106 1.73779V0.333793H11.9391V10.1753H10.3866V1.73779H9.13106Z" fill="#00C896"/>
</svg>
