<svg width="16" height="11" viewBox="0 0 16 11" fill="none" xmlns="http://www.w3.org/2000/svg">
<path d="M0.310122 5.12629C0.310122 3.56929 0.571122 2.35429 1.09312 1.48129C1.62412 0.599292 2.53312 0.158292 3.82012 0.158292C5.10712 0.158292 6.01162 0.599292 6.53362 1.48129C7.06462 2.35429 7.33012 3.56929 7.33012 5.12629C7.33012 6.70129 7.06462 7.93429 6.53362 8.82529C6.01162 9.70729 5.10712 10.1483 3.82012 10.1483C2.53312 10.1483 1.62412 9.70729 1.09312 8.82529C0.571122 7.93429 0.310122 6.70129 0.310122 5.12629ZM5.81812 5.12629C5.81812 4.39729 5.76862 3.78079 5.66962 3.27679C5.57962 2.77279 5.39062 2.36329 5.10262 2.04829C4.81462 1.72429 4.38712 1.56229 3.82012 1.56229C3.25312 1.56229 2.82562 1.72429 2.53762 2.04829C2.24962 2.36329 2.05612 2.77279 1.95712 3.27679C1.86712 3.78079 1.82212 4.39729 1.82212 5.12629C1.82212 5.88229 1.86712 6.51679 1.95712 7.02979C2.04712 7.54279 2.23612 7.95679 2.52412 8.27179C2.82112 8.58679 3.25312 8.74429 3.82012 8.74429C4.38712 8.74429 4.81462 8.58679 5.10262 8.27179C5.39962 7.95679 5.59312 7.54279 5.68312 7.02979C5.77312 6.51679 5.81812 5.88229 5.81812 5.12629ZM8.93156 2.76379C8.98556 1.92679 9.30506 1.27429 9.89006 0.806293C10.4841 0.338292 11.2401 0.104292 12.1581 0.104292C12.7881 0.104292 13.3326 0.216792 13.7916 0.441793C14.2506 0.666793 14.5971 0.972792 14.8311 1.35979C15.0651 1.74679 15.1821 2.18329 15.1821 2.66929C15.1821 3.22729 15.0336 3.70429 14.7366 4.10029C14.4396 4.49629 14.0841 4.76179 13.6701 4.89679V4.95079C14.2011 5.11279 14.6151 5.40979 14.9121 5.84179C15.2091 6.26479 15.3576 6.80929 15.3576 7.47529C15.3576 8.00629 15.2361 8.47879 14.9931 8.89279C14.7501 9.30679 14.3901 9.63529 13.9131 9.87829C13.4361 10.1123 12.8646 10.2293 12.1986 10.2293C11.2266 10.2293 10.4256 9.98179 9.79556 9.48679C9.17456 8.98279 8.84156 8.26279 8.79656 7.32679H10.2816C10.3176 7.80379 10.5021 8.19529 10.8351 8.50129C11.1681 8.79829 11.6181 8.94679 12.1851 8.94679C12.7341 8.94679 13.1571 8.79829 13.4541 8.50129C13.7511 8.19529 13.8996 7.80379 13.8996 7.32679C13.8996 6.69679 13.6971 6.25129 13.2921 5.99029C12.8961 5.72029 12.2841 5.58529 11.4561 5.58529H11.1051V4.31629H11.4696C12.1986 4.30729 12.7521 4.18579 13.1301 3.95179C13.5171 3.71779 13.7106 3.34879 13.7106 2.84479C13.7106 2.41279 13.5711 2.07079 13.2921 1.81879C13.0131 1.55779 12.6171 1.42729 12.1041 1.42729C11.6001 1.42729 11.2086 1.55779 10.9296 1.81879C10.6506 2.07079 10.4841 2.38579 10.4301 2.76379H8.93156Z" fill="#00C896"/>
</svg>
