<svg width="17" height="11" viewBox="0 0 17 11" fill="none" xmlns="http://www.w3.org/2000/svg">
<path d="M0.934939 5.12629C0.934939 3.56929 1.19594 2.35429 1.71794 1.48129C2.24894 0.599292 3.15794 0.158292 4.44494 0.158292C5.73194 0.158292 6.63644 0.599292 7.15844 1.48129C7.68944 2.35429 7.95494 3.56929 7.95494 5.12629C7.95494 6.70129 7.68944 7.93429 7.15844 8.82529C6.63644 9.70729 5.73194 10.1483 4.44494 10.1483C3.15794 10.1483 2.24894 9.70729 1.71794 8.82529C1.19594 7.93429 0.934939 6.70129 0.934939 5.12629ZM6.44294 5.12629C6.44294 4.39729 6.39344 3.78079 6.29444 3.27679C6.20444 2.77279 6.01544 2.36329 5.72744 2.04829C5.43944 1.72429 5.01194 1.56229 4.44494 1.56229C3.87794 1.56229 3.45044 1.72429 3.16244 2.04829C2.87444 2.36329 2.68094 2.77279 2.58194 3.27679C2.49194 3.78079 2.44694 4.39729 2.44694 5.12629C2.44694 5.88229 2.49194 6.51679 2.58194 7.02979C2.67194 7.54279 2.86094 7.95679 3.14894 8.27179C3.44594 8.58679 3.87794 8.74429 4.44494 8.74429C5.01194 8.74429 5.43944 8.58679 5.72744 8.27179C6.02444 7.95679 6.21794 7.54279 6.30794 7.02979C6.39794 6.51679 6.44294 5.88229 6.44294 5.12629ZM10.4339 8.08279C11.2979 7.33579 11.9774 6.72379 12.4724 6.24679C12.9764 5.76079 13.3949 5.25679 13.7279 4.73479C14.0609 4.21279 14.2274 3.69079 14.2274 3.16879C14.2274 2.62879 14.0969 2.20579 13.8359 1.89979C13.5839 1.59379 13.1834 1.44079 12.6344 1.44079C12.1034 1.44079 11.6894 1.61179 11.3924 1.95379C11.1044 2.28679 10.9514 2.73679 10.9334 3.30379H9.44838C9.47538 2.27779 9.78138 1.49479 10.3664 0.954793C10.9604 0.405793 11.7119 0.131293 12.6209 0.131293C13.6019 0.131293 14.3669 0.401293 14.9159 0.941293C15.4739 1.48129 15.7529 2.20129 15.7529 3.10129C15.7529 3.74929 15.5864 4.37479 15.2534 4.97779C14.9294 5.57179 14.5379 6.10729 14.0789 6.58429C13.6289 7.05229 13.0529 7.59679 12.3509 8.21779L11.7434 8.75779H16.0229V10.0403H9.46188V8.91979L10.4339 8.08279Z" fill="#00C896"/>
</svg>
