<svg width="11" height="8" viewBox="0 0 11 8" fill="none" xmlns="http://www.w3.org/2000/svg">
<path d="M7.41412 5.68835C7.3139 5.68835 7.21779 5.72816 7.14693 5.79903C7.07606 5.86989 7.03625 5.96601 7.03625 6.06622C7.03625 6.16644 7.07606 6.26255 7.14693 6.33342C7.21779 6.40428 7.3139 6.44409 7.41412 6.44409H8.9256C9.02581 6.44409 9.12193 6.40428 9.19279 6.33342C9.26365 6.26255 9.30346 6.16644 9.30346 6.06622C9.30346 5.96601 9.26365 5.86989 9.19279 5.79903C9.12193 5.72816 9.02581 5.68835 8.9256 5.68835H7.41412ZM0.234619 2.28754C0.234619 1.78645 0.433674 1.30589 0.787995 0.951569C1.14232 0.597249 1.62288 0.398193 2.12396 0.398193H8.9256C9.42668 0.398193 9.90724 0.597249 10.2616 0.951569C10.6159 1.30589 10.8149 1.78645 10.8149 2.28754V6.06622C10.8149 6.56731 10.6159 7.04787 10.2616 7.40219C9.90724 7.75651 9.42668 7.95557 8.9256 7.95557H2.12396C1.62288 7.95557 1.14232 7.75651 0.787995 7.40219C0.433674 7.04787 0.234619 6.56731 0.234619 6.06622V2.28754ZM10.0592 2.6654V2.28754C10.0592 1.98689 9.93977 1.69855 9.72718 1.48596C9.51458 1.27336 9.22625 1.15393 8.9256 1.15393H2.12396C1.82331 1.15393 1.53497 1.27336 1.32238 1.48596C1.10979 1.69855 0.990356 1.98689 0.990356 2.28754V2.6654H10.0592ZM0.990356 3.42114V6.06622C0.990356 6.36687 1.10979 6.65521 1.32238 6.8678C1.53497 7.0804 1.82331 7.19983 2.12396 7.19983H8.9256C9.22625 7.19983 9.51458 7.0804 9.72718 6.8678C9.93977 6.65521 10.0592 6.36687 10.0592 6.06622V3.42114H0.990356Z" fill="#35495D"/>
</svg>
