<svg width="9" height="11" viewBox="0 0 9 11" fill="none" xmlns="http://www.w3.org/2000/svg">
<path d="M8.05214 6.6619C8.05214 6.36259 7.94067 6.07553 7.74225 5.86389C7.54383 5.65224 7.27472 5.53334 6.99411 5.53334H2.05663C1.77602 5.53334 1.50691 5.65224 1.30849 5.86389C1.11007 6.07553 0.998596 6.36259 0.998596 6.6619V7.03808C0.998596 8.521 2.31056 10.0476 4.52537 10.0476C6.74018 10.0476 8.05214 8.521 8.05214 7.03808V6.6619ZM1.70395 6.6619C1.70395 6.56213 1.74111 6.46644 1.80725 6.39589C1.87339 6.32535 1.96309 6.28571 2.05663 6.28571H6.99411C7.08765 6.28571 7.17735 6.32535 7.24349 6.39589C7.30963 6.46644 7.34679 6.56213 7.34679 6.6619V7.03808C7.34679 8.11998 6.33672 9.29518 4.52537 9.29518C2.71402 9.29518 1.70395 8.11998 1.70395 7.03808V6.6619ZM6.4651 2.71197C6.46512 2.26592 6.33001 1.83181 6.0799 1.47434C5.82979 1.11688 5.47807 0.855196 5.07717 0.728307C4.67628 0.601419 4.24768 0.616117 3.85525 0.770213C3.46283 0.924308 3.12759 1.20955 2.89953 1.58341H1.70395C1.61042 1.58341 1.52071 1.62305 1.45457 1.6936C1.38843 1.76414 1.35127 1.85983 1.35127 1.9596V3.46433C1.35127 3.47637 1.35127 3.48766 1.35268 3.49894H1.35127V4.2167C1.35127 4.51601 1.46274 4.80306 1.66116 5.01471C1.85958 5.22635 2.1287 5.34525 2.40931 5.34525H2.68228C2.75497 5.3452 2.82648 5.32561 2.89019 5.28827C2.9539 5.25094 3.00776 5.19708 3.04678 5.13166C3.08581 5.06625 3.10875 4.99139 3.11347 4.91402C3.11819 4.83665 3.10455 4.75925 3.07381 4.68899C3.04307 4.61873 2.99621 4.55787 2.93758 4.51204C2.87894 4.46621 2.81042 4.43689 2.73835 4.42678C2.66628 4.41668 2.59298 4.42612 2.52524 4.45423C2.45749 4.48234 2.39748 4.52822 2.35076 4.58762C2.26854 4.57285 2.19388 4.5275 2.14004 4.45959C2.08619 4.39169 2.05664 4.30564 2.05663 4.2167V3.84052H2.23297C2.44246 3.84052 2.63784 3.77506 2.80219 3.66296C3.00183 4.07498 3.32547 4.40351 3.72116 4.5958C4.11685 4.78809 4.56163 4.833 4.98411 4.72331C5.4066 4.61362 5.78228 4.3557 6.05085 3.99095C6.31942 3.62619 6.46531 3.17577 6.4651 2.71197ZM3.291 2.71197C3.291 2.36277 3.42105 2.02788 3.65254 1.78096C3.88403 1.53404 4.19799 1.39532 4.52537 1.39532C4.85275 1.39532 5.16671 1.53404 5.3982 1.78096C5.62969 2.02788 5.75974 2.36277 5.75974 2.71197C5.75974 3.06116 5.62969 3.39605 5.3982 3.64297C5.16671 3.88989 4.85275 4.02861 4.52537 4.02861C4.19799 4.02861 3.88403 3.88989 3.65254 3.64297C3.42105 3.39605 3.291 3.06116 3.291 2.71197ZM2.58564 2.71197C2.58564 2.81174 2.54849 2.90742 2.48235 2.97797C2.41621 3.04852 2.3265 3.08815 2.23297 3.08815H2.05663V2.33578H2.58564V2.71197Z" fill="#35495D"/>
</svg>
