<svg width="10" height="9" viewBox="0 0 10 9" fill="none" xmlns="http://www.w3.org/2000/svg">
<path d="M8.69372 8.63389L8.69325 8.63363L7.5166 7.98883L6.33997 8.63362L6.33995 8.63363L6.28346 8.53054C6.25855 8.54419 6.23088 8.55064 6.20306 8.54927C6.17524 8.5479 6.14821 8.53876 6.12452 8.52271C6.10084 8.50667 6.08129 8.48425 6.06774 8.4576C6.0542 8.43095 6.04709 8.40094 6.04711 8.37043L8.69372 8.63389ZM8.69372 8.63389C8.73324 8.65531 8.77738 8.66681 8.82263 8.66688H8.82281M8.69372 8.63389L8.82281 8.66688M8.82281 8.66688C8.90094 8.66688 8.97343 8.63278 9.0251 8.57618M8.82281 8.66688L9.0251 8.57618M9.0251 8.57618C9.07644 8.51993 9.10365 8.44576 9.10365 8.37043M9.0251 8.57618L9.10365 8.37043M9.10365 8.37043V5.79917M9.10365 8.37043V5.79917M9.10365 5.79917C9.30582 5.57836 9.467 5.31746 9.5787 5.03084C9.69631 4.72907 9.7568 4.40468 9.75676 4.07714L9.10365 5.79917ZM5.92955 5.79909V8.37035L9.75676 4.07712C9.75713 3.67494 9.66649 3.2785 9.49244 2.92319C9.31838 2.56785 9.06603 2.26417 8.75707 2.04014C8.44803 1.81605 8.09217 1.67882 7.72129 1.64172C7.35038 1.60462 6.97718 1.66895 6.63535 1.82842C6.29362 1.98784 5.99451 2.23706 5.76408 2.55269C5.53369 2.86828 5.37889 3.24071 5.31276 3.63648C5.24663 4.03224 5.27108 4.43981 5.38407 4.82293C5.49243 5.19039 5.67922 5.52505 5.92955 5.79909ZM5.83812 4.07691C5.83814 3.70875 5.93784 3.34961 6.12362 3.04499C6.30936 2.74041 6.5723 2.50475 6.87787 2.36607C7.18326 2.22747 7.51859 2.19143 7.84196 2.2619C8.16546 2.3324 8.46421 2.50676 8.69977 2.76484C8.93542 3.02302 9.09694 3.35322 9.16247 3.71413C9.22799 4.07507 9.19429 4.44909 9.06596 4.78851C8.93766 5.12789 8.72101 5.41628 8.44499 5.61835C8.16916 5.82027 7.84615 5.92725 7.51675 5.92728C7.07534 5.92673 6.64973 5.73447 6.33404 5.38858C6.01802 5.04234 5.83863 4.57078 5.83812 4.07691ZM7.38702 7.39167L6.49123 7.88259V6.24819C6.80678 6.42614 7.15823 6.52017 7.5166 6.52017C7.87498 6.52017 8.22642 6.42614 8.54198 6.24819V7.88259L7.64618 7.39167C7.64618 7.39167 7.64617 7.39167 7.64617 7.39166C7.60652 7.36993 7.56212 7.35829 7.5166 7.35829C7.47108 7.35829 7.42668 7.36993 7.38704 7.39166C7.38703 7.39167 7.38703 7.39167 7.38702 7.39167ZM5.10646 7.14504C5.1578 7.0888 5.18501 7.01463 5.18501 6.9393C5.18501 6.86396 5.1578 6.7898 5.10646 6.73355C5.0548 6.67695 4.9823 6.64285 4.90418 6.64285H1.3121C1.30361 6.64285 1.29305 6.63925 1.28347 6.62876C1.27357 6.61791 1.26638 6.60107 1.26638 6.58152V0.856987C1.26638 0.837431 1.27357 0.820594 1.28347 0.809742C1.29305 0.799249 1.30361 0.795655 1.3121 0.795655H8.49626C8.50474 0.795655 8.51531 0.799249 8.52489 0.809742C8.53479 0.820594 8.54198 0.837431 8.54198 0.856987C8.54198 0.932321 8.56919 1.00649 8.62053 1.06273C8.67219 1.11934 8.74469 1.15344 8.82281 1.15344C8.90094 1.15344 8.97344 1.11934 9.0251 1.06273C9.07644 1.00649 9.10365 0.93232 9.10365 0.856987C9.10365 0.686763 9.04203 0.521593 8.92945 0.39825C8.81655 0.274548 8.661 0.202753 8.49626 0.202753H1.3121C1.14736 0.202753 0.991807 0.274548 0.878903 0.39825C0.766326 0.521593 0.704707 0.686763 0.704707 0.856987V6.58152C0.704707 6.75174 0.766326 6.91691 0.878903 7.04025C0.991807 7.16395 1.14736 7.23575 1.3121 7.23575H4.90418C4.98231 7.23575 5.0548 7.20165 5.10646 7.14504ZM4.45336 4.64056C4.50469 4.58432 4.53191 4.51015 4.53191 4.43482C4.53191 4.35948 4.50469 4.28532 4.45336 4.22907C4.40169 4.17247 4.3292 4.13837 4.25107 4.13837H2.61831C2.54018 4.13837 2.46769 4.17247 2.41602 4.22907C2.36469 4.28532 2.33747 4.35948 2.33747 4.43482C2.33747 4.51015 2.36469 4.58432 2.41602 4.64056C2.46769 4.69717 2.54018 4.73127 2.61831 4.73127H4.25107C4.3292 4.73127 4.40169 4.69717 4.45336 4.64056ZM4.45336 3.20943C4.50469 3.15319 4.53191 3.07902 4.53191 3.00369C4.53191 2.92835 4.50469 2.85418 4.45336 2.79794C4.40169 2.74133 4.3292 2.70723 4.25107 2.70723H2.61831C2.54018 2.70723 2.46769 2.74133 2.41602 2.79794C2.36469 2.85418 2.33747 2.92835 2.33747 3.00369C2.33747 3.07902 2.36469 3.15319 2.41602 3.20943C2.46769 3.26604 2.54018 3.30014 2.61831 3.30014H4.25107C4.3292 3.30014 4.40169 3.26604 4.45336 3.20943Z" fill="#35495D" stroke="#35495D" stroke-width="0.235118"/>
</svg>
