<svg width="11" height="10" viewBox="0 0 11 10" fill="none" xmlns="http://www.w3.org/2000/svg">
<path d="M7.97397 1.05363H9.93329C10.0632 1.05363 10.1878 1.10524 10.2797 1.1971C10.3715 1.28896 10.4231 1.41355 10.4231 1.54346V9.38074C10.4231 9.51065 10.3715 9.63524 10.2797 9.7271C10.1878 9.81896 10.0632 9.87057 9.93329 9.87057H1.11636C0.986445 9.87057 0.861855 9.81896 0.769994 9.7271C0.678133 9.63524 0.626526 9.51065 0.626526 9.38074V1.54346C0.626526 1.41355 0.678133 1.28896 0.769994 1.1971C0.861855 1.10524 0.986445 1.05363 1.11636 1.05363H3.07567V0.0739746H4.05533V1.05363H6.99431V0.0739746H7.97397V1.05363ZM9.44346 4.97227H1.60619V8.89091H9.44346V4.97227ZM6.99431 2.03329H4.05533V3.01295H3.07567V2.03329H1.60619V3.99261H9.44346V2.03329H7.97397V3.01295H6.99431V2.03329ZM2.58584 5.95193H3.5655V6.93159H2.58584V5.95193ZM5.03499 5.95193H6.01465V6.93159H5.03499V5.95193ZM7.48414 5.95193H8.4638V6.93159H7.48414V5.95193Z" fill="#35495D"/>
</svg>
