<svg width="9" height="12" viewBox="0 0 9 12" fill="none" xmlns="http://www.w3.org/2000/svg">
<path d="M7.42482 4.4005C7.42482 3.62212 7.11561 2.87561 6.56521 2.32521C6.01481 1.77481 5.26831 1.4656 4.48992 1.4656C3.71154 1.4656 2.96504 1.77481 2.41464 2.32521C1.86424 2.87561 1.55503 3.62212 1.55503 4.4005V8.31369H7.42482V4.4005ZM8.40312 8.63996L8.59878 8.90067C8.62603 8.93701 8.64262 8.98022 8.6467 9.02545C8.65078 9.07069 8.64218 9.11617 8.62187 9.15679C8.60156 9.19742 8.57033 9.23159 8.5317 9.25547C8.49306 9.27934 8.44854 9.29199 8.40312 9.29199H0.576728C0.531308 9.29199 0.486785 9.27934 0.448148 9.25547C0.409511 9.23159 0.378286 9.19742 0.357974 9.15679C0.337661 9.11617 0.329063 9.07069 0.333142 9.02545C0.337221 8.98022 0.353816 8.93701 0.381068 8.90067L0.576728 8.63996V4.4005C0.576728 3.36266 0.98901 2.36732 1.72288 1.63345C2.45674 0.899587 3.45208 0.487305 4.48992 0.487305C5.52777 0.487305 6.5231 0.899587 7.25697 1.63345C7.99084 2.36732 8.40312 3.36266 8.40312 4.4005V8.63996ZM3.26705 9.78114H5.7128C5.7128 10.1055 5.58396 10.4165 5.35462 10.6458C5.12529 10.8752 4.81425 11.004 4.48992 11.004C4.1656 11.004 3.85455 10.8752 3.62522 10.6458C3.39589 10.4165 3.26705 10.1055 3.26705 9.78114Z" fill="#35495D"/>
</svg>
