<svg width="17" height="16" viewBox="0 0 17 16" fill="none" xmlns="http://www.w3.org/2000/svg">
<path d="M0.859356 8.80718L14.1469 8.80718L8.78454 14.1397C8.4599 14.4627 8.47517 14.9758 8.81892 15.2809C8.98697 15.428 9.19703 15.5034 9.41092 15.5034C9.64008 15.5034 9.86542 15.4172 10.0373 15.2522L16.767 8.55599C16.7823 8.54163 16.7938 8.52369 16.809 8.50575C16.8281 8.48422 16.8472 8.46269 16.8625 8.44116C16.8778 8.41962 16.8892 8.3945 16.9045 8.36939C16.916 8.34785 16.9313 8.32632 16.9389 8.30479C16.9504 8.27608 16.958 8.24738 16.9694 8.21867C16.9771 8.19714 16.9847 8.17919 16.9885 8.15766C17.0115 8.0536 17.0115 7.94953 16.9885 7.84546C16.9847 7.82393 16.9771 7.80599 16.9694 7.78446C16.9618 7.75575 16.9542 7.72704 16.9389 7.69833C16.9274 7.6768 16.916 7.65527 16.9045 7.63374C16.8931 7.60862 16.8778 7.58709 16.8625 7.56197C16.8472 7.54044 16.8281 7.51891 16.809 7.49738C16.7938 7.47943 16.7823 7.46508 16.767 7.44714L10.0335 0.750964C9.70883 0.427998 9.16266 0.413644 8.81892 0.718667C8.47136 1.02728 8.45608 1.53685 8.78454 1.8634L14.1508 7.19594L0.859356 7.19594C0.385755 7.19235 -1.23367e-06 7.55479 -1.31148e-06 7.99976C-1.38928e-06 8.44474 0.385755 8.80718 0.859356 8.80718Z" fill="white"/>
</svg>
